<?xml version="1.0" encoding="utf-8"?>
<!-- Generator: Adobe Illustrator 24.2.3, SVG Export Plug-In . SVG Version: 6.00 Build 0)  -->
<svg version="1.1" id="Layer_1" xmlns="http://www.w3.org/2000/svg" xmlns:xlink="http://www.w3.org/1999/xlink" x="0px" y="0px"
	 viewBox="0 0 102 32.5" style="enable-background:new 0 0 102 32.5;" xml:space="preserve">
<style type="text/css">
	.st0{fill:#003B71;}
</style>
<g>
	<path class="st0" d="M1,18.33V1h6.04v17.16c0,4.94,2.23,7.49,5.92,7.49c3.69,0,5.92-2.47,5.92-7.28V1h6.04v17.11
		c0,9.18-4.67,13.69-12.04,13.69C5.51,31.8,1,27.25,1,18.33"/>
	<polygon class="st0" points="37.47,7.15 27.87,7.15 27.87,1 53.1,1 53.1,7.15 43.51,7.15 43.51,31.33 37.47,31.33 	"/>
	<path class="st0" d="M56.06,1h11.21c6.55,0,10.51,4.29,10.51,10.48v0.09c0,7.02-4.94,10.66-11.1,10.66H62.1v9.1h-6.04V1z
		 M66.88,16.29c3.02,0,4.78-1.99,4.78-4.59v-0.09c0-2.99-1.88-4.59-4.9-4.59H62.1v9.27H66.88z"/>
	<polygon class="st0" points="80.39,1 86.43,1 86.43,25.26 101,25.26 101,31.33 80.39,31.33 	"/>
</g>
</svg>
